# xmcd
#
# Track frame offsets: 
#        150
#        12113
#        25370
#        36724
#        50819
#        65212
#        76104
#        89950
#        106549
#        118958
#        130705
#        138052
#        151325
#        166548
#        178492
#        193986
#        212725
#        227190
#        236451
#        250039
#
# Disc length: 3479 seconds
#
# Revision: 2
# Processed by: cddbd v1.5.2PL0 Copyright (c) Steve Scherf et al.
# Submitted via: ExactAudioCopy v0.99pb4
#
DISCID=1b0d9514
DTITLE=Frank Sinatra - 10 CD Set [CD 5)
DYEAR=2005
DGENRE=Jazz
TTITLE0=Kiss Me Again
TTITLE1=The Music Stopped
TTITLE2=You've Got A Hold On Me
TTITLE3=A Lovely Way To Spend An Evening 
TTITLE4=Close To You
TTITLE5=My Shining Hour
TTITLE6=And Then You Kissed Me
TTITLE7=Mighty Lik'a Rose
TTITLE8=Cradle Song
TTITLE9=I'll Follow My Secret Heart
TTITLE10=Just Close Your Eyes
TTITLE11=If You Are But A Dream
TTITLE12=Strange Music
TTITLE13=Dick Haymes, Dick Todd And Como  
TTITLE14=None But The Lonely Heart
TTITLE15=Ol' Man River
TTITLE16=Homesick That's All
TTITLE17=The Night Is Young And You Are So Beautiful 
TTITLE18=Was The Last Time I Saw You
TTITLE19=Don't Forget Tonight Tomorrow
EXTD=YEAR: 2005
EXTT0=
EXTT1=
EXTT2=
EXTT3=
EXTT4=
EXTT5=
EXTT6=
EXTT7=
EXTT8=
EXTT9=
EXTT10=
EXTT11=
EXTT12=
EXTT13=
EXTT14=
EXTT15=
EXTT16=
EXTT17=
EXTT18=
EXTT19=
PLAYORDER=
